<svg width="56" height="56" viewBox="0 0 56 56" fill="none" xmlns="http://www.w3.org/2000/svg">
<path fill-rule="evenodd" clip-rule="evenodd" d="M0 28C0 12.5412 12.5412 0 28 0C43.4588 0 56 12.5412 56 28C56 43.4588 43.4588 56 28 56C12.5412 56 0 43.4588 0 28ZM28 4.30769C14.9203 4.30769 4.30769 14.9203 4.30769 28C4.30769 41.0797 14.9203 51.6923 28 51.6923C41.0797 51.6923 51.6923 41.0797 51.6923 28C51.6923 14.9203 41.0797 4.30769 28 4.30769Z" fill="#015BAA"/>
<path fill-rule="evenodd" clip-rule="evenodd" d="M18.9264 17.3251C18.5017 17.3251 18.0944 17.4938 17.7941 17.7941C17.4939 18.0944 17.3252 18.5017 17.3252 18.9263V22.6625C17.3252 23.8416 16.3693 24.7975 15.1902 24.7975C14.0111 24.7975 13.0552 23.8416 13.0552 22.6625V18.9263C13.0552 17.3692 13.6738 15.8759 14.7748 14.7748C15.8759 13.6737 17.3693 13.0552 18.9264 13.0552H22.6626C23.8417 13.0552 24.7975 14.011 24.7975 15.1901C24.7975 16.3693 23.8417 17.3251 22.6626 17.3251H18.9264ZM31.2025 15.1901C31.2025 14.011 32.1583 13.0552 33.3374 13.0552H37.0736C38.6308 13.0552 40.1241 13.6737 41.2252 14.7748C42.3262 15.8759 42.9448 17.3692 42.9448 18.9263V22.6625C42.9448 23.8416 41.9889 24.7975 40.8098 24.7975C39.6307 24.7975 38.6748 23.8416 38.6748 22.6625V18.9263C38.6748 18.5017 38.5061 18.0944 38.2059 17.7941C37.9056 17.4938 37.4983 17.3251 37.0736 17.3251H33.3374C32.1583 17.3251 31.2025 16.3693 31.2025 15.1901ZM15.1902 31.2024C16.3693 31.2024 17.3252 32.1583 17.3252 33.3374V37.0736C17.3252 37.4983 17.4939 37.9055 17.7941 38.2058C18.0944 38.5061 18.5017 38.6748 18.9264 38.6748H22.6626C23.8417 38.6748 24.7975 39.6307 24.7975 40.8098C24.7975 41.9889 23.8417 42.9447 22.6626 42.9447H18.9264C17.3692 42.9447 15.8759 42.3262 14.7748 41.2251C13.6738 40.1241 13.0552 38.6307 13.0552 37.0736V33.3374C13.0552 32.1583 14.0111 31.2024 15.1902 31.2024ZM40.8098 31.2024C41.9889 31.2024 42.9448 32.1583 42.9448 33.3374V37.0736C42.9448 38.6307 42.3262 40.1241 41.2252 41.2251C40.1241 42.3262 38.6308 42.9447 37.0736 42.9447H33.3374C32.1583 42.9447 31.2025 41.9889 31.2025 40.8098C31.2025 39.6307 32.1583 38.6748 33.3374 38.6748H37.0736C37.4983 38.6748 37.9056 38.5061 38.2059 38.2058C38.5061 37.9055 38.6748 37.4983 38.6748 37.0736V33.3374C38.6748 32.1583 39.6307 31.2024 40.8098 31.2024Z" fill="#015BAA"/>
</svg>
